# File produced by Open Asset Import Library (http://www.assimp.sf.net)
# (assimp v3.1.187256796)

mtllib bananaLOWER.mtl

# vertex positions
v -0.096254 0.187867 0.000563
v -0.164603 0.186532 0.433486
v -0.178654 0.359855 0.329883
v -0.120217 0.316198 -0.297643
v -0.135463 0.389679 0.013821
v -0.030990 0.033130 -0.069864
v -0.095888 0.044458 0.345440
v -0.059007 0.095617 -0.332096
v 0.211934 0.002552 -0.289546
v 0.317044 0.014874 -0.377813
v 0.347451 0.007760 -0.025522
v -0.001944 -0.013835 0.589284
v 0.244012 -0.008172 0.484830
v 0.095317 0.004264 -0.114816
v 0.188277 0.613166 -0.129897
v 0.032568 0.542018 -0.154649
v 0.164769 0.609612 0.100465
v -0.026182 0.523108 0.432719
v -0.033277 0.019072 0.144320
v -0.067925 0.465391 -0.607632
v -0.123157 0.416584 -0.019893
v -0.180617 0.422137 0.776751
v 0.317686 0.530210 -0.306600
v 0.359324 0.511864 -0.131457
v 0.244121 0.561170 0.283839
v 0.345899 0.486801 0.256032
v 0.349971 0.160332 0.487296
v 0.438095 0.355888 0.316666
v 0.336547 0.327891 0.622047
v 0.421581 0.168763 -0.318797
v 0.452083 0.358156 -0.360687
v 0.479740 0.369158 -0.068666
v 0.228736 0.451170 0.627677
v 0.334784 0.042877 0.295552
v 0.440047 0.178728 0.042498
v -0.241962 0.349444 0.599278
v -0.181002 0.186040 -0.685869
v -0.122768 0.208860 -0.483296
v -0.150268 0.381496 -0.492724
v -0.102240 0.041989 -0.632292
v -0.249509 0.041479 -0.924087
v 0.124075 0.017975 -0.829498
v 0.055113 0.528462 -0.716789
v 0.012909 0.389473 -0.997576
v 0.140341 0.428965 -0.833628
v 0.308108 0.170485 -0.684129
v 0.063704 0.147419 -1.041394
v 0.047077 0.250547 -1.096043
v 0.203820 0.293948 -0.907899
v 0.361204 0.337503 -0.640461
v 0.283638 0.462750 -0.588067
v 0.015583 0.074945 -1.039841
v 0.299004 0.041030 -0.528232
v -0.032713 0.032600 -0.417387
v -0.215547 0.134460 0.642608
v -0.215016 0.037969 0.748520
v 0.153621 -0.008803 0.681229
v -0.170114 0.020589 0.861824
v -0.270631 0.321606 0.889684
v -0.294262 0.295810 0.769086
v 0.088021 0.511045 0.683624
v 0.102352 0.582630 0.436108
v 0.069648 0.392875 0.875598
v 0.264829 0.137332 0.675664
v 0.226798 0.300356 0.811294
v 0.113301 0.270415 0.942681
v -0.015684 0.235737 1.041437
v 0.158142 0.107905 0.827961
v 0.036859 -0.003900 0.841887
v -0.154010 0.416578 0.922407
v -0.072600 0.433756 0.898468
v -0.022107 0.514165 0.741815
v -0.480703 0.089963 -1.200754
v -0.469005 0.061971 -1.225357
v -0.467454 0.053913 -1.205670
v -0.434824 0.045026 -1.246802
v -0.493488 0.147771 -1.223587
v -0.494873 0.156561 -1.206014
v -0.447609 0.191221 -1.281126
v -0.374566 0.133869 -1.336070
v -0.278527 0.081936 0.931593
v -0.269662 0.219439 1.019789
v -0.165406 0.297427 1.033456
v -0.289226 0.257294 0.985906
v -0.046386 0.338217 0.988650
v -0.133606 0.201930 1.069534
v -0.054131 0.122837 1.019248
v -0.242735 0.130570 1.022292
v -0.145274 0.041326 0.982270
v -0.241808 0.175383 1.040842
v -0.062996 0.013628 0.936284
v 0.019845 0.109858 0.969055
v -0.309021 0.129750 0.862266
v -0.351050 0.149777 0.905959
v -0.336193 0.213691 0.881572
v -0.290034 0.084170 1.003348
v -0.242509 0.080369 0.985402
v -0.373660 0.191528 0.920138
v -0.359625 0.218371 1.012101
v -0.316547 0.243275 0.933635
v -0.364726 0.076760 0.981143
v -0.351874 0.099002 0.922786
v -0.299829 0.091791 0.878980
v -0.460533 0.163101 0.954863
v -0.452235 0.186276 0.996804
v -0.468818 0.067926 0.961351
v -0.439848 0.047647 1.046227
v -0.649484 0.023939 1.144638
v -0.485509 0.109958 1.113886
v -0.477657 0.109387 0.955674
v -0.693696 0.061143 0.996517
v -0.701791 0.101747 1.001956
v -0.696668 -0.012293 1.047776
v -0.682965 -0.022066 1.109592
v -0.717180 0.126972 1.110856
v -0.678901 0.009793 1.002301
v -0.714991 0.120407 1.055809
v -0.668660 0.104752 1.144476
v -0.651703 0.065331 1.166402
v -0.698675 0.003843 1.099990
v -0.732121 0.109152 1.065258
v -0.727130 0.107958 1.103798
v -0.703765 0.048396 1.086507
v -0.682238 0.078399 1.127962
v -0.079800 0.216079 -1.205131
v -0.134454 0.089369 -1.196431
v -0.209118 0.180097 -1.279104
v -0.114152 0.325805 -1.143836
v -0.233569 0.231612 -1.257707
v -0.035410 0.012063 -0.803662
v -0.334705 0.028431 -1.162352
v -0.445159 0.208527 -1.221722
v -0.358765 0.254807 -0.994810
v -0.082476 0.022121 -1.080757
v -0.268542 0.029562 -1.216556
v -0.295062 0.240944 -1.260209
v -0.306341 0.299239 -1.201700
v -0.135592 0.411378 -1.030665
v -0.235777 0.359809 -1.028724
v -0.398750 0.175383 -1.318115
v -0.446268 0.194871 -1.125583
v -0.261464 0.085975 -1.265676
v -0.377450 0.079031 -1.311780
v -0.398498 0.047933 -1.290419
v -0.435617 0.202347 -1.287496
v 0.172235 0.562115 -0.504458
v 0.429376 0.227258 0.227576
v -0.241816 0.325610 -0.770174
v -0.291284 0.139791 -0.918722
v -0.224635 0.345218 0.974536
v -0.294357 0.156365 -1.305652

# UV coordinates
vt 0.227711 0.353107
vt 0.123057 0.502395
vt 0.093896 0.428861
vt 0.282767 0.222158
vt 0.164032 0.309040
vt 0.292567 0.368063
vt 0.193201 0.503810
vt 0.353087 0.268872
vt 0.408166 0.357490
vt 0.460945 0.373724
vt 0.399083 0.462796
vt 0.189304 0.600350
vt 0.282408 0.598896
vt 0.339799 0.386876
vt 0.633903 0.614826
vt 0.691781 0.650635
vt 0.575601 0.665456
vt 0.501778 0.782052
vt 0.251635 0.444289
vt 0.827503 0.466215
vt 0.701862 0.744482
vt 0.411001 0.899855
vt 0.620772 0.527400
vt 0.577935 0.565177
vt 0.503394 0.679278
vt 0.482403 0.644404
vt 0.341425 0.628097
vt 0.431116 0.621533
vt 0.362075 0.692884
vt 0.502581 0.432774
vt 0.565309 0.469568
vt 0.512874 0.536705
vt 0.395281 0.735439
vt 0.345337 0.558272
vt 0.438011 0.521060
vt 0.484745 0.920330
vt 0.447137 0.141032
vt 0.371568 0.192461
vt 0.331172 0.139269
vt 0.461540 0.202825
vt 0.570029 0.121040
vt 0.569145 0.253882
vt 0.766695 0.429374
vt 0.737231 0.310398
vt 0.713481 0.372686
vt 0.578751 0.347696
vt 0.657456 0.243111
vt 0.698322 0.257307
vt 0.665413 0.324631
vt 0.617466 0.401211
vt 0.660049 0.441589
vt 0.641723 0.215984
vt 0.507229 0.348883
vt 0.396469 0.264199
vt 0.086502 0.584777
vt 0.095792 0.639148
vt 0.235029 0.649600
vt 0.111608 0.697812
vt 0.355173 0.953751
vt 0.407129 0.967424
vt 0.404880 0.787635
vt 0.481726 0.743603
vt 0.332221 0.805842
vt 0.293971 0.674395
vt 0.317155 0.742115
vt 0.280994 0.779816
vt 0.246990 0.818239
vt 0.249016 0.713287
vt 0.190100 0.700318
vt 0.347062 0.888215
vt 0.348454 0.857692
vt 0.402306 0.830614
vt 0.669846 0.024661
vt 0.685731 0.031809
vt 0.679365 0.036489
vt 0.702459 0.050856
vt 0.873658 0.154010
vt 0.884079 0.161742
vt 0.840368 0.156648
vt 0.791206 0.128130
vt 0.862504 0.126571
vt 0.066172 0.724582
vt 0.264463 0.908639
vt 0.281609 0.880208
vt 0.297383 0.940744
vt 0.295216 0.840896
vt 0.219368 0.845963
vt 0.200266 0.789960
vt 0.155507 0.835125
vt 0.142690 0.764631
vt 0.197943 0.869509
vt 0.162125 0.736418
vt 0.212357 0.763546
vt 0.042598 0.677426
vt 0.020604 0.690100
vt 0.009528 0.668201
vt 0.021300 0.069846
vt 0.009729 0.094205
vt 0.001895 0.073215
vt 0.318716 0.999999
vt 0.290087 0.965351
vt 0.320020 0.970268
vt 0.045936 0.085414
vt 0.033923 0.106313
vt 0.032165 0.706287
vt 0.053223 0.692920
vt 0.069773 0.139531
vt 0.069376 0.158255
vt 0.032458 0.141738
vt 0.081836 0.103673
vt 0.083382 0.070696
vt 0.002450 0.052107
vt 0.000001 0.034592
vt 0.171853 0.054406
vt 0.003747 0.014575
vt 0.101374 0.036414
vt 0.080093 0.120279
vt 0.165508 0.120959
vt 0.166132 0.132037
vt 0.179676 0.095376
vt 0.186209 0.075280
vt 0.190359 0.159360
vt 0.034203 0.176461
vt 0.165610 0.106760
vt 0.178958 0.145249
vt 0.170049 0.020070
vt 0.035004 0.000946
vt 0.181399 0.000001
vt 0.170555 0.037472
vt 0.196541 0.095144
vt 0.186769 0.142297
vt 0.199174 0.147153
vt 0.228445 0.139312
vt 0.226567 0.104576
vt 0.199385 0.117922
vt 0.217870 0.130209
vt 0.235578 0.123650
vt 0.723430 0.209514
vt 0.694133 0.165811
vt 0.748195 0.168201
vt 0.757802 0.245860
vt 0.768818 0.183830
vt 0.535917 0.203594
vt 0.666340 0.085926
vt 0.862719 0.173286
vt 0.877023 0.269110
vt 0.642693 0.175992
vt 0.692454 0.112188
vt 0.789636 0.180144
vt 0.811634 0.207316
vt 0.783088 0.293838
vt 0.816948 0.281159
vt 0.811044 0.145103
vt 0.887171 0.205286
vt 0.724832 0.126033
vt 0.752125 0.087074
vt 0.729963 0.070900
vt 0.834809 0.157943
vt 0.695926 0.488463
vt 0.414883 0.575754
vt 0.164421 0.290356
vt 0.026116 0.528127
vt 0.441261 0.075698
vt 0.546815 0.087275
vt 0.327721 0.075538
vt 0.874079 0.369425
vt 0.834930 0.540756
vt 0.663975 0.000595
vt 0.656222 0.001564
vt 0.805194 0.114260
vt 0.821261 0.110072
vt 0.845856 0.115915
vt 0.109348 0.776462
vt 0.321430 0.918555
vt 0.337768 0.989461
vt 0.007546 0.606015
vt 0.001110 0.687275
vt 0.550239 0.029493
vt 0.617027 0.010728
vt 0.763953 0.140929

# vertex normals
vn -0.958096 -0.262394 -0.114900
vn -0.949490 -0.237634 -0.204934
vn -0.966258 -0.190036 -0.173875
vn -0.970950 -0.237233 0.031257
vn -0.988794 -0.123773 -0.083468
vn -0.825035 -0.562705 -0.051772
vn -0.916367 -0.350743 -0.193007
vn -0.936474 -0.330405 0.117680
vn -0.003059 -0.999860 -0.016433
vn 0.493005 -0.864525 -0.097688
vn 0.612113 -0.790763 -0.003483
vn -0.098524 -0.994960 -0.018629
vn 0.289425 -0.953917 0.079218
vn -0.159083 -0.986400 -0.041336
vn 0.100694 0.993996 -0.042808
vn -0.542203 0.839713 -0.029979
vn -0.246327 0.969062 0.015581
vn -0.485366 0.874299 -0.004575
vn -0.320598 -0.944599 -0.070353
vn -0.606303 0.795006 0.019049
vn -0.755477 0.654327 -0.033329
vn -0.632271 0.774641 -0.012822
vn 0.597530 0.783372 -0.171131
vn 0.659644 0.751576 0.002041
vn 0.493823 0.855196 0.157413
vn 0.710875 0.685427 0.157627
vn 0.902724 -0.344081 0.258260
vn 0.927210 0.285073 0.242932
vn 0.905548 0.126547 0.404931
vn 0.925685 -0.351791 -0.139105
vn 0.939040 0.257343 -0.227989
vn 0.976739 0.213477 0.020229
vn 0.624353 0.691507 0.363320
vn 0.839251 -0.522280 0.151263
vn 0.927641 -0.369025 0.057466
vn -0.956559 0.182791 -0.227117
vn -0.892703 -0.243373 0.379277
vn -0.945143 -0.249514 0.210825
vn -0.966560 0.204923 0.154169
vn -0.738801 -0.624784 0.252622
vn -0.587338 -0.727858 0.353916
vn 0.409555 -0.875234 -0.257351
vn -0.158597 0.968517 -0.191888
vn 0.410042 0.721971 -0.557336
vn 0.550071 0.687925 -0.473478
vn 0.856296 -0.327000 -0.399785
vn 0.741222 -0.352250 -0.571411
vn 0.637624 0.318796 -0.701288
vn 0.789274 0.169008 -0.590324
vn 0.849003 0.292210 -0.440236
vn 0.611760 0.717529 -0.333018
vn 0.624470 -0.556316 -0.548224
vn 0.786078 -0.541532 -0.298034
vn -0.291071 -0.956203 0.030887
vn -0.911681 -0.255643 -0.321690
vn -0.547448 -0.826064 -0.133864
vn 0.457783 -0.848320 0.266059
vn -0.229923 -0.970500 0.072559
vn -0.750632 0.656899 0.070957
vn -0.853529 0.520438 -0.025141
vn 0.393051 0.837141 0.380403
vn -0.033121 0.990226 0.135486
vn 0.469949 0.656288 0.590283
vn 0.828527 -0.381395 0.409977
vn 0.787848 0.198301 0.583072
vn 0.683138 0.030228 0.729664
vn 0.431055 0.205950 0.878508
vn 0.721971 -0.408025 0.558815
vn 0.215676 -0.933892 0.285184
vn -0.337365 0.858752 0.385656
vn 0.200140 0.776984 0.596859
vn -0.287982 0.943074 0.166365
vn -0.796411 -0.262761 0.544689
vn -0.719433 -0.228613 -0.655860
vn -0.419919 -0.872377 0.250251
vn -0.146968 -0.983851 -0.102169
vn -0.849935 -0.127914 -0.511125
vn -0.895974 0.406346 0.179201
vn -0.756574 0.011303 -0.653811
vn -0.337830 -0.003428 -0.941201
vn -0.335352 -0.941733 0.026063
vn -0.071025 0.532322 0.843557
vn -0.084378 0.534341 0.841047
vn -0.576356 0.618432 0.534187
vn 0.253538 0.613089 0.748225
vn -0.019565 -0.155701 0.987610
vn 0.284465 -0.462247 0.839885
vn 0.172329 -0.516897 0.838523
vn -0.081243 -0.706816 0.702716
vn 0.207912 -0.103958 0.972607
vn 0.178153 -0.844066 0.505780
vn 0.589135 -0.425363 0.687013
vn -0.882134 -0.213622 -0.419768
vn -0.731333 -0.139884 -0.667521
vn -0.932695 0.033477 -0.359108
vn 0.289659 -0.848059 0.443726
vn -0.271387 -0.884018 0.380606
vn -0.521359 0.442919 -0.729388
vn -0.226676 0.932859 0.279987
vn -0.766988 0.641087 0.027154
vn 0.163922 -0.950212 -0.265001
vn -0.336842 -0.607379 -0.719464
vn -0.761033 -0.567888 -0.313579
vn -0.338697 0.528422 -0.778495
vn -0.300849 0.913342 -0.274403
vn -0.091245 -0.493731 -0.864815
vn 0.316076 -0.913737 0.255304
vn 0.278535 -0.542090 0.792816
vn 0.222706 0.241920 0.944392
vn -0.199074 -0.044515 -0.978973
vn -0.472524 -0.120900 -0.872986
vn -0.455243 0.493811 -0.740881
vn -0.006216 -0.954690 -0.297538
vn 0.220617 -0.970700 0.095234
vn -0.237301 0.955543 0.175003
vn -0.168635 -0.621838 -0.764774
vn -0.314519 0.914033 -0.256167
vn -0.015715 0.659802 0.751275
vn -0.086733 -0.037192 0.995537
vn -0.877751 -0.106030 0.467237
vn -0.965348 -0.153777 -0.210843
vn -0.776349 -0.268975 0.570030
vn -0.957280 -0.261067 0.124338
vn -0.698571 -0.253235 0.669231
vn 0.574109 0.062798 -0.816367
vn 0.544686 -0.465206 -0.697783
vn 0.436208 -0.149912 -0.887270
vn 0.280644 0.680179 -0.677196
vn 0.245930 0.544127 -0.802150
vn -0.088968 -0.995779 0.022573
vn -0.107825 -0.993679 0.031235
vn -0.624946 0.780125 0.029123
vn -0.848081 0.413559 0.331251
vn 0.173689 -0.961657 -0.212246
vn 0.188294 -0.896886 -0.400176
vn 0.108652 0.627338 -0.771130
vn -0.237050 0.870834 -0.430646
vn -0.052626 0.919424 -0.389732
vn -0.522777 0.852146 -0.023481
vn -0.058791 0.613346 -0.787623
vn -0.856122 0.077617 0.510911
vn 0.381553 -0.505489 -0.773885
vn 0.342332 -0.408090 -0.846328
vn -0.107558 -0.726005 -0.679226
vn -0.365148 0.812152 -0.455055
vn 0.347586 0.909911 -0.226377
vn 0.966007 -0.213941 0.145120
vn -0.920276 0.189845 0.342128
vn -0.829011 -0.207976 0.519122
vn -0.591790 0.706491 0.388143
vn 0.261671 0.190411 -0.946188

# Mesh
g ZBrush_defualt_group
usemtl DefaultMaterial
f 1/1/1 2/2/2 3/3/3
f 4/4/4 1/1/1 5/5/5
f 1/1/1 3/3/3 5/5/5
f 1/1/1 6/6/6 7/7/7
f 4/4/4 8/8/8 6/6/6
f 2/2/2 1/1/1 7/7/7
f 9/9/9 10/10/10 11/11/11
f 12/12/12 9/9/9 13/13/13
f 14/14/14 9/9/9 12/12/12
f 15/15/15 16/16/16 17/17/17
f 18/18/18 17/17/17 16/16/16
f 19/19/19 14/14/14 12/12/12
f 20/20/20 21/21/21 16/16/16
f 22/22/22 18/18/18 16/16/16
f 23/23/23 15/15/15 24/24/24
f 24/24/24 25/25/25 26/26/26
f 27/27/27 28/28/28 29/29/29
f 30/30/30 31/31/31 32/32/32
f 29/29/29 28/28/28 33/33/33
f 33/33/33 28/28/28 26/26/26
f 31/31/31 24/24/24 32/32/32
f 33/33/33 26/26/26 25/25/25
f 13/13/13 34/34/34 27/27/27
f 34/34/34 35/35/35 27/27/27
f 11/11/11 30/30/30 35/35/35
f 6/6/6 19/19/19 7/7/7
f 36/36/36 22/22/22 21/21/21
f 13/13/13 11/11/11 34/34/34
f 37/37/37 38/38/38 39/39/39
f 38/38/38 37/37/37 40/40/40
f 37/37/37 41/41/41 40/40/40
f 9/9/9 42/42/42 10/10/10
f 43/43/43 20/20/20 16/16/16
f 44/44/44 43/43/43 45/45/45
f 30/30/30 46/46/46 31/31/31
f 47/47/47 48/48/48 49/49/49
f 50/50/50 51/51/51 31/31/31
f 49/49/49 45/45/45 50/50/50
f 48/48/48 44/44/44 49/49/49
f 45/45/45 51/51/51 50/50/50
f 42/42/42 52/52/52 47/47/47
f 53/53/53 46/46/46 30/30/30
f 46/46/46 49/49/49 50/50/50
f 8/8/8 40/40/40 54/54/54
f 10/10/10 42/42/42 53/53/53
f 55/55/55 7/7/7 56/56/56
f 55/55/55 2/2/2 7/7/7
f 12/12/12 13/13/13 57/57/57
f 56/56/56 12/12/12 58/58/58
f 59/59/59 36/36/36 60/60/60
f 61/61/61 25/25/25 62/62/62
f 63/63/63 33/33/33 61/61/61
f 64/64/64 27/27/27 29/29/29
f 65/65/65 64/64/64 29/29/29
f 33/33/33 63/63/63 65/65/65
f 33/33/33 65/65/65 29/29/29
f 63/63/63 66/66/66 65/65/65
f 63/63/63 67/67/67 66/66/66
f 57/57/57 64/64/64 68/68/68
f 57/57/57 13/13/13 64/64/64
f 69/69/69 57/57/57 68/68/68
f 66/66/66 68/68/68 65/65/65
f 70/70/70 71/71/71 72/72/72
f 73/73/73 74/74/74 75/75/75
f 74/74/74 76/76/76 75/75/75
f 77/77/77 78/78/78 79/79/79
f 79/79/79 80/80/80 74/81/74
f 56/56/56 58/58/58 81/82/81
f 82/83/82 83/84/83 84/85/84
f 83/84/83 85/86/85 71/71/71
f 86/87/86 87/88/87 67/67/67
f 88/89/88 89/90/89 86/87/86
f 90/91/90 86/87/86 82/83/82
f 91/92/91 92/93/92 87/88/87
f 93/94/93 94/95/94 95/96/95
f 96/97/96 81/98/81 97/99/97
f 98/100/98 99/101/99 100/102/100
f 100/102/100 99/101/99 84/85/84
f 101/103/101 102/104/102 81/98/81
f 102/105/102 103/106/103 81/82/81
f 104/107/104 105/108/105 98/109/98
f 84/85/84 99/101/99 82/83/82
f 106/110/106 98/109/98 102/104/102
f 107/111/107 101/103/101 96/97/96
f 88/112/88 90/113/90 108/114/108
f 82/115/82 109/116/109 90/113/90
f 88/112/88 108/114/108 96/97/96
f 110/117/110 111/118/111 112/119/112
f 113/120/113 101/103/101 114/121/114
f 105/108/105 115/122/115 99/123/99
f 116/124/116 101/103/101 113/120/113
f 105/108/105 104/107/104 112/119/112
f 105/108/105 112/119/112 117/125/117
f 118/126/118 99/127/99 115/128/115
f 109/116/109 118/126/118 119/129/119
f 107/111/107 108/114/108 114/121/114
f 120/130/120 113/120/113 114/121/114
f 121/131/121 115/122/115 117/125/117
f 121/131/121 117/125/117 112/119/112
f 115/122/115 122/132/122 118/133/118
f 120/130/120 114/121/114 108/134/108
f 111/118/111 116/124/116 123/135/123
f 123/135/123 122/132/122 121/131/121
f 123/135/123 124/136/124 122/132/122
f 122/132/122 124/136/124 118/133/118
f 119/137/119 124/136/124 123/135/123
f 47/47/47 125/138/125 48/48/48
f 126/139/126 127/140/127 125/138/125
f 125/138/125 128/141/128 48/48/48
f 127/140/127 129/142/129 125/138/125
f 48/48/48 128/141/128 44/44/44
f 130/143/130 41/41/41 131/144/131
f 75/75/75 131/144/131 41/41/41
f 132/145/132 133/146/133 20/20/20
f 42/42/42 134/147/134 52/52/52
f 134/147/134 126/139/126 52/52/52
f 130/143/130 134/147/134 42/42/42
f 134/147/134 135/148/135 126/139/126
f 136/149/136 128/141/128 129/142/129
f 137/150/137 138/151/138 128/141/128
f 137/150/137 139/152/139 138/151/138
f 140/153/140 137/150/137 136/149/136
f 75/75/75 76/76/76 131/144/131
f 132/145/132 78/78/78 141/154/141
f 127/140/127 142/155/142 143/156/143
f 126/139/126 142/155/142 127/140/127
f 76/76/76 144/157/144 135/148/135
f 145/158/145 132/145/132 137/150/137
f 1/1/1 4/4/4 6/6/6
f 13/13/13 9/9/9 11/11/11
f 18/18/18 62/62/62 17/17/17
f 19/19/19 6/6/6 14/14/14
f 6/6/6 54/54/54 14/14/14
f 21/21/21 22/22/22 16/16/16
f 15/15/15 17/17/17 25/25/25
f 146/159/146 15/15/15 23/23/23
f 24/24/24 15/15/15 25/25/25
f 147/160/147 35/35/35 32/32/32
f 28/28/28 147/160/147 32/32/32
f 27/27/27 147/160/147 28/28/28
f 35/35/35 30/30/30 32/32/32
f 26/26/26 28/28/28 32/32/32
f 32/32/32 24/24/24 26/26/26
f 31/31/31 23/23/23 24/24/24
f 11/11/11 10/10/10 30/30/30
f 34/34/34 11/11/11 35/35/35
f 27/27/27 35/35/35 147/160/147
f 6/6/6 8/8/8 54/54/54
f 21/161/21 4/4/4 5/5/5
f 39/39/39 4/4/4 21/161/21
f 3/3/3 21/161/21 5/5/5
f 3/3/3 36/162/36 21/161/21
f 17/17/17 62/62/62 25/25/25
f 39/39/39 38/38/38 4/4/4
f 148/163/148 37/37/37 39/39/39
f 148/163/148 149/164/149 37/37/37
f 4/4/4 38/38/38 8/8/8
f 8/8/8 38/38/38 40/40/40
f 9/9/9 130/143/130 42/42/42
f 15/15/15 43/43/43 16/16/16
f 138/151/138 139/152/139 43/43/43
f 43/43/43 139/152/139 20/20/20
f 54/54/54 40/40/40 130/143/130
f 40/40/40 41/41/41 130/143/130
f 14/14/14 54/54/54 9/9/9
f 54/54/54 130/143/130 9/9/9
f 139/152/139 132/145/132 20/20/20
f 20/165/20 148/163/148 39/39/39
f 133/146/133 148/166/148 20/20/20
f 20/20/20 39/167/39 21/21/21
f 51/51/51 146/159/146 23/23/23
f 51/51/51 43/43/43 146/159/146
f 45/45/45 43/43/43 51/51/51
f 44/44/44 138/151/138 43/43/43
f 46/46/46 47/47/47 49/49/49
f 31/31/31 46/46/46 50/50/50
f 31/31/31 51/51/51 23/23/23
f 49/49/49 44/44/44 45/45/45
f 53/53/53 42/42/42 46/46/46
f 30/30/30 10/10/10 53/53/53
f 46/46/46 42/42/42 47/47/47
f 146/159/146 43/43/43 15/15/15
f 55/55/55 93/94/93 36/162/36
f 3/3/3 2/2/2 36/162/36
f 2/2/2 55/55/55 36/162/36
f 57/57/57 69/69/69 12/12/12
f 69/69/69 91/92/91 58/58/58
f 58/58/58 12/12/12 69/69/69
f 18/18/18 72/72/72 62/62/62
f 22/22/22 72/72/72 18/18/18
f 72/72/72 22/22/22 70/70/70
f 56/56/56 19/19/19 12/12/12
f 59/59/59 22/22/22 36/36/36
f 72/72/72 71/71/71 61/61/61
f 61/61/61 33/33/33 25/25/25
f 71/71/71 63/63/63 61/61/61
f 71/71/71 85/86/85 63/63/63
f 65/65/65 68/68/68 64/64/64
f 66/66/66 92/93/92 68/68/68
f 67/67/67 92/93/92 66/66/66
f 63/63/63 85/86/85 67/67/67
f 64/64/64 13/13/13 27/27/27
f 92/93/92 69/69/69 68/68/68
f 91/92/91 69/69/69 92/93/92
f 56/56/56 7/7/7 19/19/19
f 72/72/72 61/61/61 62/62/62
f 77/168/77 73/73/73 78/169/78
f 77/168/77 74/74/74 73/73/73
f 145/158/145 79/79/79 132/145/132
f 79/79/79 78/78/78 132/145/132
f 140/153/140 79/79/79 145/158/145
f 143/170/143 144/171/144 80/80/80
f 80/80/80 79/79/79 140/153/140
f 77/77/77 79/79/79 74/81/74
f 76/172/76 74/81/74 144/171/144
f 144/171/144 74/81/74 80/80/80
f 36/162/36 93/94/93 95/96/95
f 56/56/56 103/106/103 55/55/55
f 103/106/103 93/94/93 55/55/55
f 89/90/89 58/58/58 91/92/91
f 89/90/89 97/173/97 58/58/58
f 97/173/97 81/82/81 58/58/58
f 22/22/22 59/59/59 150/174/150
f 59/59/59 100/102/100 84/85/84
f 70/70/70 22/22/22 150/174/150
f 59/59/59 84/85/84 150/174/150
f 103/106/103 56/56/56 81/82/81
f 60/60/60 100/102/100 59/59/59
f 95/175/95 100/102/100 60/60/60
f 150/174/150 83/84/83 70/70/70
f 84/85/84 83/84/83 150/174/150
f 70/70/70 83/84/83 71/71/71
f 67/67/67 87/88/87 92/93/92
f 90/91/90 88/89/88 86/87/86
f 82/83/82 86/87/86 83/84/83
f 85/86/85 83/84/83 67/67/67
f 67/67/67 83/84/83 86/87/86
f 86/87/86 89/90/89 87/88/87
f 88/89/88 97/173/97 89/90/89
f 89/90/89 91/92/91 87/88/87
f 36/162/36 95/96/95 60/176/60
f 95/96/95 94/95/94 98/177/98
f 102/105/102 94/95/94 93/94/93
f 102/105/102 98/177/98 94/95/94
f 96/97/96 101/103/101 81/98/81
f 99/123/99 98/109/98 105/108/105
f 100/102/100 95/175/95 98/100/98
f 88/112/88 96/97/96 97/99/97
f 103/106/103 102/105/102 93/94/93
f 98/109/98 110/117/110 104/107/104
f 106/110/106 110/117/110 98/109/98
f 106/110/106 102/104/102 101/103/101
f 99/127/99 118/126/118 82/115/82
f 108/114/108 90/113/90 109/116/109
f 82/115/82 118/126/118 109/116/109
f 107/111/107 96/97/96 108/114/108
f 104/107/104 110/117/110 112/119/112
f 111/118/111 110/117/110 116/124/116
f 114/121/114 101/103/101 107/111/107
f 105/108/105 117/125/117 115/122/115
f 116/124/116 106/110/106 101/103/101
f 108/114/108 109/116/109 119/129/119
f 110/117/110 106/110/106 116/124/116
f 123/135/123 112/119/112 111/118/111
f 122/132/122 115/122/115 121/131/121
f 124/136/124 119/137/119 118/133/118
f 123/135/123 113/120/113 120/130/120
f 113/120/113 123/135/123 116/124/116
f 112/119/112 123/135/123 121/131/121
f 120/130/120 108/134/108 123/135/123
f 119/137/119 123/135/123 108/134/108
f 52/52/52 126/139/126 47/47/47
f 47/47/47 126/139/126 125/138/125
f 125/138/125 129/142/129 128/141/128
f 41/41/41 73/73/73 75/75/75
f 133/178/133 149/164/149 148/163/148
f 141/179/141 149/164/149 133/178/133
f 37/37/37 149/164/149 41/41/41
f 149/164/149 141/179/141 73/73/73
f 149/164/149 73/73/73 41/41/41
f 132/145/132 141/154/141 133/146/133
f 136/149/136 137/150/137 128/141/128
f 128/141/128 138/151/138 44/44/44
f 130/143/130 131/144/131 134/147/134
f 134/147/134 131/144/131 135/148/135
f 80/80/80 136/149/136 151/180/151
f 80/80/80 140/153/140 136/149/136
f 140/153/140 145/158/145 137/150/137
f 142/155/142 135/148/135 144/157/144
f 142/155/142 144/157/144 143/156/143
f 78/169/78 73/73/73 141/179/141
f 143/156/143 80/80/80 151/180/151
f 151/180/151 127/140/127 143/156/143
f 127/140/127 151/180/151 129/142/129
f 151/180/151 136/149/136 129/142/129
f 126/139/126 135/148/135 142/155/142
f 131/144/131 76/76/76 135/148/135
f 137/150/137 132/145/132 139/152/139
