# File produced by Open Asset Import Library (http://www.assimp.sf.net)
# (assimp v3.1.187256796)

mtllib Trashcanlower.mtl

# vertex positions
v 0.054753 0.050181 0.351209
v -0.152721 -0.007337 0.322020
v -0.002046 -0.008004 0.348330
v 0.013177 0.858234 0.326265
v 0.129217 0.862519 0.329441
v -0.048534 0.865329 0.351572
v -0.123437 0.991682 0.334122
v -0.199069 0.864305 0.303439
v 0.027427 1.002486 0.347345
v 0.117885 0.931026 0.325403
v 0.262365 0.996230 0.222161
v -0.060774 0.478020 0.310116
v -0.056681 0.056991 0.328360
v 0.034090 0.469987 0.309893
v -0.076209 0.162516 0.318179
v -0.119910 0.020447 0.309826
v 0.150094 -0.006881 0.308780
v 0.037928 0.769594 0.314371
v 0.039782 0.166376 0.317435
v -0.266934 0.061247 0.210818
v -0.209300 0.045877 0.298194
v 0.170370 0.774394 0.262502
v 0.188090 0.859049 0.260922
v -0.196745 0.774144 0.263631
v -0.066308 0.773904 0.316394
v -0.156212 0.859798 0.297659
v 0.210563 0.020672 0.221887
v 0.055276 0.482029 0.290118
v 0.098410 0.057976 0.309932
v 0.168776 0.172492 0.258812
v 0.297601 0.050300 0.164948
v -0.083607 0.479695 0.289812
v -0.167851 0.482391 0.254578
v -0.098680 0.172897 0.291663
v 0.163519 0.470169 0.252208
v 0.202880 0.057917 0.242326
v -0.198829 0.188497 0.258268
v -0.290014 0.863504 0.219266
v -0.275408 0.856684 0.197554
v 0.235141 0.476231 0.193643
v -0.272763 0.998006 0.242627
v 0.284141 0.060397 0.129930
v 0.239318 0.168446 0.192235
v -0.357272 0.048085 0.073066
v -0.324116 -0.008755 0.167207
v -0.314167 0.020665 0.065402
v 0.239422 0.773314 0.188652
v 0.302406 0.859262 0.065760
v 0.333614 1.000093 -0.006164
v -0.322942 0.777768 0.071284
v -0.299112 0.756558 0.081061
v -0.357778 0.988945 0.059536
v 0.276333 0.767089 0.079292
v 0.236703 0.482983 0.160970
v 0.277006 0.178626 0.075055
v -0.261384 0.454992 0.188657
v -0.266932 0.169218 0.193454
v -0.359998 0.863365 0.040122
v -0.322916 0.169350 0.057952
v 0.295111 0.174367 0.055260
v -0.187118 1.006886 0.033286
v -0.119559 1.005913 0.035311
v 0.321014 0.864471 0.095861
v 0.328773 -0.007315 -0.001945
v 0.277504 -0.007282 0.189807
v 0.282973 0.019926 -0.106404
v -0.322271 0.457892 0.052218
v 0.303468 0.060220 -0.070887
v 0.165054 1.009687 0.029674
v 0.089037 1.008173 0.031676
v -0.332244 0.058977 0.027417
v 0.294301 0.177598 -0.040293
v 0.293334 0.777596 0.076580
v -0.351556 -0.007140 -0.044241
v -0.332529 0.856927 -0.056052
v 0.321213 0.046763 -0.075575
v -0.134733 1.019749 -0.029625
v 0.084708 1.087569 -0.032944
v -0.103129 1.078165 0.035188
v 0.082704 1.073951 0.035069
v -0.096813 1.063598 -0.032598
v -0.105561 1.005652 -0.033018
v 0.070296 1.063131 -0.032451
v 0.106027 1.024288 -0.027290
v -0.114219 1.086402 -0.033004
v 0.078321 1.005729 -0.033036
v -0.322721 0.174619 -0.041075
v 0.291195 0.858707 -0.098112
v 0.167029 1.008069 -0.029293
v 0.294165 0.775361 -0.046217
v -0.323005 0.772244 -0.043874
v 0.321444 0.867215 -0.073549
v -0.317954 0.057313 -0.104609
v -0.194807 1.006399 -0.030643
v 0.002946 1.002804 -0.333927
v -0.230414 0.020819 -0.228097
v 0.272295 0.486765 -0.063453
v 0.237357 0.187613 -0.151991
v -0.263871 0.169502 -0.184640
v -0.307423 0.156454 -0.110855
v 0.248665 0.163155 -0.172571
v -0.323941 0.046726 -0.146916
v -0.280571 -0.006513 -0.210867
v 0.238778 0.764606 -0.168798
v -0.264951 0.474401 -0.146922
v -0.300959 0.479456 -0.062272
v 0.262353 -0.008201 -0.193209
v -0.127716 0.999170 -0.318046
v -0.346588 1.000009 -0.087812
v 0.243563 0.863430 -0.228215
v 0.261252 0.996753 -0.205452
v -0.253576 0.993634 -0.248737
v -0.322929 0.866878 -0.152994
v 0.190272 0.858217 -0.244986
v -0.265498 0.763622 -0.182598
v 0.225592 0.047395 -0.240885
v -0.195642 0.057799 -0.263258
v 0.170391 0.057370 -0.258235
v -0.193672 0.165069 -0.252861
v 0.169273 0.769117 -0.247273
v 0.177988 0.466057 -0.238290
v -0.206843 0.858721 -0.252146
v -0.236563 0.863947 -0.258952
v -0.188393 0.513717 -0.238543
v 0.102362 -0.007125 -0.317410
v -0.195045 0.772325 -0.247230
v 0.062640 0.019662 -0.289237
v -0.083667 0.454653 -0.276677
v 0.053324 0.863339 -0.338690
v -0.065736 0.770521 -0.302735
v -0.065677 0.168749 -0.302325
v -0.061660 0.465658 -0.296782
v 0.161711 0.162919 -0.258298
v 0.002811 0.059901 -0.315410
v -0.184635 0.047813 -0.295004
v -0.072466 -0.007235 -0.329472
v 0.130219 0.980475 -0.304155
v -0.007265 0.858265 -0.313917
v -0.109490 0.865361 -0.326113
v 0.034384 0.175659 -0.301821
v 0.032021 0.774195 -0.304312
v 0.038572 0.047558 -0.338022
v 0.247560 0.864412 0.232102
v 0.145385 0.185426 -0.246154
v 0.055550 0.477214 -0.276457

# UV coordinates
vt 0.685184 0.179672
vt 0.619211 0.217053
vt 0.648311 0.174918
vt 0.763117 0.602770
vt 0.810845 0.619779
vt 0.737579 0.619556
vt 0.695891 0.669880
vt 0.668288 0.619284
vt 0.757353 0.689921
vt 0.803353 0.655978
vt 0.870564 0.702405
vt 0.718167 0.427035
vt 0.664012 0.221257
vt 0.756268 0.409361
vt 0.672124 0.278620
vt 0.615321 0.197308
vt 0.637925 0.111069
vt 0.771443 0.557724
vt 0.709800 0.251855
vt 0.597012 0.289922
vt 0.616221 0.252939
vt 0.836664 0.555017
vt 0.850532 0.601952
vt 0.661227 0.570189
vt 0.724827 0.565684
vt 0.684686 0.608016
vt 0.560987 0.052794
vt 0.769552 0.411331
vt 0.705239 0.175912
vt 0.751852 0.218461
vt 0.742662 0.112436
vt 0.704441 0.431763
vt 0.662542 0.444937
vt 0.664955 0.295822
vt 0.813483 0.387789
vt 0.737553 0.140937
vt 0.633199 0.325897
vt 0.617038 0.620085
vt 0.615680 0.609999
vt 0.849834 0.377600
vt 0.617282 0.678809
vt 0.779975 0.122614
vt 0.788166 0.196788
vt 0.539566 0.300459
vt 0.561939 0.266373
vt 0.531195 0.261003
vt 0.885243 0.544465
vt 0.952988 0.585321
vt 0.892780 0.811532
vt 0.550929 0.584980
vt 0.561928 0.574670
vt 0.539745 0.679929
vt 0.942171 0.527193
vt 0.862906 0.376509
vt 0.848398 0.185539
vt 0.603039 0.445584
vt 0.594759 0.334400
vt 0.530674 0.633885
vt 0.538949 0.352771
vt 0.858674 0.177712
vt 0.543763 0.777067
vt 0.573860 0.795878
vt 0.943839 0.607551
vt 0.999999 0.663777
vt 0.350202 0.069802
vt 0.461477 0.026156
vt 0.349670 0.108372
vt 0.541005 0.462541
vt 0.328318 0.018890
vt 0.263133 0.123450
vt 0.156924 0.133366
vt 0.803900 0.816000
vt 0.754388 0.820586
vt 0.525956 0.315608
vt 0.362031 0.000001
vt 0.187552 0.170293
vt 0.025198 0.519685
vt 0.500050 0.285610
vt 0.491743 0.622023
vt 0.282453 0.117144
vt 0.461473 0.799999
vt 0.210705 0.825913
vt 0.144138 0.889569
vt 0.180670 0.813168
vt 0.247558 0.851082
vt 0.209074 0.922363
vt 0.183357 0.903762
vt 0.460122 0.843403
vt 0.426136 0.833489
vt 0.412670 0.804139
vt 0.220649 0.832258
vt 0.258851 0.830889
vt 0.184039 0.813127
vt 0.190996 0.788411
vt 0.223084 0.798100
vt 0.530865 0.831763
vt 0.480106 0.822643
vt 0.170545 0.906719
vt 0.247677 0.801600
vt 0.500559 0.358990
vt 0.097670 0.586792
vt 0.000001 0.580483
vt 0.015339 0.571731
vt 0.777918 0.847451
vt 0.811202 0.842272
vt 0.454906 0.820397
vt 0.078065 0.535743
vt 0.496460 0.587580
vt 0.082857 0.601179
vt 0.076141 0.703509
vt 0.477543 0.316251
vt 0.471249 0.778974
vt 0.288596 0.692710
vt 0.174759 0.764543
vt 0.428425 0.263987
vt 0.141159 0.366792
vt 0.220600 0.226543
vt 0.438040 0.353263
vt 0.472488 0.349723
vt 0.232071 0.219679
vt 0.466070 0.305655
vt 0.441418 0.281863
vt 0.144067 0.539061
vt 0.447020 0.470948
vt 0.485964 0.475055
vt 0.316968 0.148997
vt 0.346266 0.680878
vt 0.482889 0.709803
vt 0.158841 0.600287
vt 0.154539 0.659905
vt 0.405413 0.676550
vt 0.454085 0.635925
vt 0.179079 0.590034
vt 0.425367 0.579875
vt 0.290974 0.187377
vt 0.404211 0.305828
vt 0.284539 0.213668
vt 0.398303 0.345030
vt 0.196172 0.549528
vt 0.223608 0.404997
vt 0.383818 0.614445
vt 0.391963 0.625530
vt 0.389115 0.477988
vt 0.329634 0.216104
vt 0.381765 0.579814
vt 0.349277 0.213218
vt 0.341808 0.445014
vt 0.259708 0.617014
vt 0.315253 0.571931
vt 0.349853 0.325678
vt 0.328672 0.446028
vt 0.271753 0.266694
vt 0.332840 0.270512
vt 0.398605 0.293598
vt 0.370460 0.256450
vt 0.227951 0.662524
vt 0.283627 0.604642
vt 0.328837 0.625303
vt 0.313204 0.310242
vt 0.267150 0.565374
vt 0.329503 0.252468
vt 0.875425 0.617769
vt 0.670906 0.068320
vt 0.951166 0.532638
vt 0.272801 0.283426
vt 0.275313 0.434095

# vertex normals
vn 0.183476 0.274014 0.944062
vn -0.288595 -0.382690 0.877645
vn 0.023812 -0.856794 0.515109
vn 0.072641 -0.199574 0.977186
vn 0.338047 -0.415776 0.844307
vn -0.046596 -0.133054 0.990013
vn -0.315445 0.224060 0.922113
vn -0.483048 -0.199630 0.852533
vn 0.038800 0.976251 0.213142
vn 0.415728 0.091742 0.904850
vn 0.684171 0.510726 0.520642
vn -0.190340 0.004759 0.981707
vn -0.144226 0.127082 0.981350
vn 0.138342 0.007156 0.990359
vn -0.506610 0.087977 0.857675
vn 0.052612 -0.984036 -0.170014
vn 0.350498 -0.869438 0.348178
vn 0.409939 -0.041673 0.911161
vn 0.308400 0.053201 0.949768
vn -0.739039 0.176102 0.650238
vn -0.561354 0.325009 0.761085
vn 0.422254 -0.049411 0.905130
vn 0.681512 -0.249357 0.688014
vn -0.448130 -0.042810 0.892943
vn -0.309740 -0.050751 0.949466
vn -0.385935 -0.281783 0.878438
vn -0.040508 -0.998683 -0.031492
vn 0.398122 -0.000323 0.917332
vn 0.341178 0.201806 0.918081
vn 0.414005 0.057646 0.908448
vn 0.817809 0.329474 0.471842
vn -0.430098 -0.031284 0.902240
vn -0.267211 0.001345 0.963637
vn -0.442465 0.062382 0.894614
vn 0.487712 0.002150 0.873002
vn 0.670788 0.070482 0.738292
vn -0.545847 0.005536 0.837867
vn -0.856657 -0.181203 0.483016
vn -0.832963 -0.121541 0.539815
vn 0.759219 -0.003969 0.650823
vn -0.345698 0.887882 0.303577
vn 0.931959 0.167681 0.321459
vn 0.914322 0.058605 0.400725
vn -0.913069 0.352342 0.205330
vn -0.373370 -0.907697 0.191524
vn 0.068577 -0.997546 -0.014101
vn 0.908405 -0.019549 0.417635
vn 0.985672 -0.122623 0.115818
vn 0.413223 0.910630 0.000973
vn -0.967520 0.021913 0.251844
vn -0.919829 -0.010648 0.392175
vn -0.940934 0.209106 0.266305
vn 0.863498 -0.032660 0.503294
vn 0.945827 0.000379 0.324672
vn 0.903810 0.024718 0.427220
vn -0.878559 -0.004881 0.477610
vn -0.926126 0.027350 0.376222
vn -0.959208 -0.280028 0.038775
vn -0.924246 0.019647 0.381293
vn 0.971697 0.031613 0.234105
vn -0.034327 0.999044 0.027062
vn -0.027721 0.999318 0.024389
vn 0.956192 -0.149040 0.251959
vn 0.367158 -0.929890 -0.022343
vn 0.462546 -0.845385 0.267163
vn -0.079320 -0.996151 0.037309
vn -0.995716 -0.003292 0.092400
vn 0.945903 0.222801 -0.235853
vn 0.046847 0.998043 0.041425
vn -0.051896 0.997629 0.045199
vn -0.987276 0.140454 0.074555
vn 0.985204 0.027535 -0.169158
vn 0.972779 -0.038660 0.228487
vn -0.356545 -0.934095 -0.018473
vn -0.966017 -0.224470 -0.128155
vn 0.949775 0.227485 -0.214890
vn -0.481069 0.870353 -0.105161
vn 0.168876 0.953333 -0.250273
vn 0.234295 0.790447 0.565950
vn 0.261049 -0.695643 0.669279
vn 0.143582 -0.970866 -0.191841
vn 0.298862 0.947752 -0.111571
vn -0.548531 -0.827582 -0.119254
vn 0.683371 0.726846 -0.068547
vn -0.500308 0.838443 -0.216113
vn -0.040341 0.997912 -0.050430
vn -0.974837 0.032275 -0.220572
vn 0.856170 -0.400536 -0.326410
vn 0.038621 0.998114 -0.047724
vn 0.961713 -0.031060 -0.272294
vn -0.952318 -0.040418 -0.302417
vn 0.955898 -0.112556 -0.271276
vn -0.898075 0.198963 -0.392270
vn -0.029268 0.999031 -0.032866
vn 0.020879 0.967466 -0.252138
vn 0.036847 -0.998512 0.040191
vn 0.901680 -0.009351 -0.432303
vn 0.957099 0.027380 -0.288464
vn -0.862884 0.026915 -0.504684
vn -0.909961 0.168296 -0.379009
vn 0.824124 0.025146 -0.565851
vn -0.848205 0.348182 -0.399147
vn -0.580955 -0.590585 -0.560090
vn 0.887419 -0.025528 -0.460256
vn -0.946830 -0.017869 -0.321238
vn -0.895835 0.015829 -0.444105
vn 0.633601 -0.655430 -0.411049
vn -0.144267 0.921276 -0.361161
vn -0.495199 0.858768 -0.131510
vn 0.674183 -0.182969 -0.715541
vn 0.679896 0.569919 -0.461448
vn -0.669239 0.186188 -0.719342
vn -0.897518 -0.139934 -0.418186
vn 0.653785 -0.260890 -0.710283
vn -0.807808 -0.009863 -0.589363
vn 0.632983 0.343126 -0.693972
vn -0.567303 0.271140 -0.777593
vn 0.656981 0.146019 -0.739632
vn -0.477830 0.032228 -0.877861
vn 0.327339 -0.023999 -0.944602
vn 0.669349 0.005386 -0.742929
vn -0.601491 -0.200685 -0.773262
vn -0.585652 -0.411699 -0.698224
vn -0.447076 -0.014740 -0.894374
vn 0.110078 -0.922701 -0.369466
vn -0.367929 -0.056272 -0.928150
vn -0.035344 -0.983738 0.176099
vn -0.397488 0.015473 -0.917477
vn 0.238856 -0.216158 -0.946691
vn -0.362292 -0.031166 -0.931544
vn -0.347823 0.015783 -0.937427
vn -0.108637 0.000305 -0.994081
vn 0.241685 0.081324 -0.966941
vn -0.000652 0.155436 -0.987846
vn -0.446967 0.258640 -0.856345
vn -0.098730 -0.912549 -0.396871
vn 0.466759 0.143982 -0.872585
vn 0.051816 -0.235733 -0.970435
vn -0.281346 -0.173269 -0.943834
vn 0.261916 0.037277 -0.964371
vn 0.245878 -0.020438 -0.969085
vn 0.116561 0.334943 -0.935001
vn 0.701985 -0.268700 0.659559
vn 0.308898 0.028355 -0.950672
vn 0.413528 -0.010309 -0.910433

# Mesh
g ZBrush_defualt_group
usemtl DefaultMaterial
f 1/1/1 2/2/2 3/3/3
f 4/4/4 5/5/5 6/6/6
f 7/7/7 8/8/8 6/6/6
f 4/4/4 6/6/6 8/8/8
f 9/9/9 10/10/10 11/11/11
f 12/12/12 13/13/13 14/14/14
f 12/12/12 15/15/15 13/13/13
f 16/16/16 17/17/17 3/3/3
f 18/18/18 4/4/4 14/14/14
f 4/4/4 12/12/12 14/14/14
f 13/13/13 19/19/19 14/14/14
f 20/20/20 21/21/21 13/13/13
f 4/4/4 22/22/22 23/23/23
f 24/24/24 25/25/25 26/26/26
f 27/27/27 17/17/17 16/16/16
f 14/14/14 28/28/28 18/18/18
f 19/19/19 29/29/29 30/30/30
f 19/19/19 30/30/30 28/28/28
f 28/28/28 22/22/22 18/18/18
f 17/17/17 31/31/31 1/1/1
f 32/32/32 33/33/33 34/34/34
f 28/28/28 30/30/30 35/35/35
f 29/29/29 36/36/36 30/30/30
f 37/37/37 34/34/34 33/33/33
f 36/36/36 1/1/1 31/31/31
f 30/30/30 36/36/36 35/35/35
f 26/26/26 38/38/38 39/39/39
f 35/35/35 40/40/40 22/22/22
f 41/41/41 38/38/38 8/8/8
f 42/42/42 36/36/36 31/31/31
f 43/43/43 36/36/36 42/42/42
f 21/21/21 44/44/44 45/45/45
f 46/46/46 16/16/16 45/45/45
f 47/47/47 48/48/48 23/23/23
f 9/9/9 11/11/11 49/49/49
f 39/39/39 50/50/50 51/51/51
f 38/38/38 41/41/41 52/52/52
f 53/53/53 54/54/54 55/55/55
f 56/56/56 51/51/51 57/57/57
f 52/52/52 58/58/58 38/38/38
f 51/51/51 59/59/59 57/57/57
f 43/43/43 60/60/60 55/55/55
f 61/61/61 9/9/9 62/62/62
f 11/11/11 63/63/63 49/64/49
f 27/27/27 64/65/64 65/66/65
f 66/67/66 64/65/64 27/27/27
f 51/51/51 67/68/67 59/59/59
f 42/69/42 68/70/68 60/71/60
f 49/49/49 69/72/69 9/9/9
f 70/73/70 62/62/62 9/9/9
f 67/68/67 71/74/71 59/59/59
f 68/70/68 42/69/42 31/75/31
f 72/76/72 73/77/73 60/71/60
f 74/78/74 45/45/45 44/44/44
f 75/79/75 67/68/67 50/50/50
f 31/75/31 64/65/64 76/80/76
f 61/61/61 62/62/62 77/81/77
f 78/82/78 79/83/79 80/84/80
f 80/85/80 79/86/79 81/87/81
f 79/88/79 62/89/62 82/90/82
f 83/91/83 70/92/70 80/85/80
f 80/93/80 70/94/70 84/95/84
f 62/62/62 79/96/79 85/97/85
f 85/98/85 79/83/79 78/82/78
f 62/89/62 70/92/70 86/99/86
f 67/68/67 87/100/87 71/74/71
f 88/101/88 63/102/63 48/103/48
f 80/93/80 84/95/84 78/82/78
f 68/70/68 31/75/31 76/80/76
f 84/104/84 69/72/69 89/105/89
f 83/91/83 80/85/80 81/87/81
f 79/88/79 82/90/82 81/106/81
f 85/97/85 77/81/77 62/62/62
f 90/107/90 48/103/48 72/76/72
f 75/79/75 91/108/91 67/68/67
f 91/108/91 87/100/87 67/68/67
f 63/102/63 92/109/92 49/110/49
f 93/111/93 44/44/44 71/74/71
f 78/82/78 81/87/81 85/98/85
f 85/97/85 81/106/81 82/90/82
f 84/95/84 86/99/86 78/82/78
f 82/90/82 77/81/77 85/97/85
f 77/81/77 82/90/82 94/112/94
f 95/113/95 82/90/82 62/89/62
f 62/89/62 86/99/86 95/113/95
f 95/113/95 86/99/86 89/114/89
f 95/113/95 89/114/89 49/110/49
f 66/67/66 27/27/27 96/115/96
f 97/116/97 72/76/72 98/117/98
f 99/118/99 100/119/100 87/100/87
f 101/120/101 98/117/98 72/76/72
f 74/78/74 102/121/102 103/122/103
f 98/117/98 104/123/104 97/116/97
f 105/124/105 99/118/99 106/125/106
f 96/115/96 74/78/74 103/122/103
f 64/65/64 107/126/107 76/80/76
f 108/127/108 109/128/109 94/112/94
f 110/129/110 111/130/111 92/109/92
f 100/119/100 99/118/99 93/111/93
f 111/130/111 95/113/95 49/110/49
f 109/128/109 108/127/108 112/131/112
f 112/131/112 113/132/113 109/128/109
f 104/123/104 98/117/98 101/120/101
f 114/133/114 88/101/88 104/123/104
f 115/134/115 99/118/99 105/124/105
f 76/80/76 107/126/107 116/135/116
f 117/136/117 102/121/102 93/111/93
f 118/137/118 101/120/101 68/70/68
f 99/118/99 115/134/115 119/138/119
f 120/139/120 114/133/114 121/140/121
f 122/141/122 75/79/75 123/142/123
f 115/134/115 124/143/124 119/138/119
f 122/141/122 124/143/124 115/134/115
f 66/67/66 125/144/125 107/126/107
f 122/141/122 126/145/126 124/143/124
f 116/135/116 107/126/107 125/144/125
f 66/67/66 127/146/127 125/144/125
f 128/147/128 119/138/119 124/143/124
f 110/129/110 114/133/114 129/148/129
f 124/143/124 126/145/126 130/149/130
f 128/147/128 131/150/131 119/138/119
f 126/145/126 122/141/122 130/149/130
f 128/147/128 132/151/132 131/150/131
f 133/152/133 118/137/118 134/153/134
f 130/149/130 132/151/132 128/147/128
f 135/154/135 136/155/136 103/122/103
f 111/130/111 137/156/137 95/113/95
f 138/157/138 114/133/114 120/139/120
f 129/148/129 114/133/114 138/157/138
f 122/141/122 138/157/138 130/149/130
f 139/158/139 122/141/122 123/142/123
f 133/152/133 134/153/134 140/159/140
f 119/138/119 134/153/134 117/136/117
f 140/159/140 132/151/132 141/160/141
f 108/127/108 139/158/139 112/131/112
f 137/156/137 110/129/110 129/148/129
f 141/160/141 132/151/132 138/157/138
f 135/154/135 117/136/117 134/153/134
f 127/146/127 136/155/136 125/144/125
f 135/154/135 134/153/134 142/161/142
f 129/148/129 138/157/138 139/158/139
f 142/161/142 136/155/136 135/154/135
f 95/113/95 137/156/137 129/148/129
f 95/113/95 139/158/139 108/127/108
f 142/161/142 125/144/125 136/155/136
f 5/5/5 10/10/10 6/6/6
f 9/9/9 7/7/7 6/6/6
f 9/9/9 6/6/6 10/10/10
f 21/21/21 2/2/2 1/1/1
f 13/13/13 1/1/1 29/29/29
f 17/17/17 1/1/1 3/3/3
f 13/13/13 29/29/29 19/19/19
f 13/13/13 21/21/21 1/1/1
f 16/16/16 3/3/3 2/2/2
f 4/4/4 25/25/25 12/12/12
f 41/41/41 7/7/7 9/9/9
f 26/26/26 4/4/4 8/8/8
f 26/26/26 25/25/25 4/4/4
f 4/4/4 18/18/18 22/22/22
f 23/23/23 5/5/5 4/4/4
f 15/15/15 12/12/12 34/34/34
f 12/12/12 25/25/25 32/32/32
f 12/12/12 32/32/32 34/34/34
f 14/14/14 19/19/19 28/28/28
f 41/41/41 8/8/8 7/7/7
f 15/15/15 37/37/37 13/13/13
f 13/13/13 37/37/37 20/20/20
f 38/38/38 26/26/26 8/8/8
f 32/32/32 25/25/25 24/24/24
f 15/15/15 34/34/34 37/37/37
f 5/5/5 143/162/143 10/10/10
f 10/10/10 143/162/143 11/11/11
f 32/32/32 24/24/24 33/33/33
f 2/2/2 21/21/21 45/45/45
f 29/29/29 1/1/1 36/36/36
f 35/35/35 22/22/22 28/28/28
f 17/17/17 27/27/27 65/163/65
f 33/33/33 24/24/24 37/37/37
f 26/26/26 39/39/39 24/24/24
f 17/17/17 65/163/65 31/31/31
f 45/45/45 16/16/16 2/2/2
f 37/37/37 24/24/24 39/39/39
f 22/22/22 40/40/40 23/23/23
f 35/35/35 36/36/36 40/40/40
f 37/37/37 39/39/39 56/56/56
f 23/23/23 143/162/143 5/5/5
f 37/37/37 56/56/56 20/20/20
f 40/40/40 36/36/36 43/43/43
f 20/20/20 56/56/56 57/57/57
f 44/44/44 21/21/21 20/20/20
f 47/47/47 23/23/23 40/40/40
f 61/61/61 41/41/41 9/9/9
f 11/11/11 143/162/143 63/63/63
f 48/48/48 143/162/143 23/23/23
f 54/54/54 47/47/47 40/40/40
f 40/40/40 43/43/43 54/54/54
f 51/51/51 56/56/56 39/39/39
f 48/48/48 47/47/47 73/164/73
f 58/58/58 39/39/39 38/38/38
f 46/46/46 27/27/27 16/16/16
f 54/54/54 43/43/43 55/55/55
f 57/57/57 59/59/59 20/20/20
f 47/47/47 54/54/54 53/53/53
f 48/48/48 63/63/63 143/162/143
f 43/43/43 42/42/42 60/60/60
f 109/128/109 41/41/41 61/61/61
f 71/74/71 44/44/44 20/20/20
f 53/53/53 73/164/73 47/47/47
f 58/58/58 75/79/75 39/39/39
f 64/65/64 31/75/31 65/66/65
f 75/79/75 50/50/50 39/39/39
f 20/20/20 59/59/59 71/74/71
f 69/72/69 70/73/70 9/9/9
f 53/53/53 60/60/60 73/164/73
f 51/51/51 50/50/50 67/68/67
f 53/53/53 55/55/55 60/60/60
f 109/128/109 52/52/52 41/41/41
f 45/45/45 74/78/74 46/46/46
f 48/103/48 73/77/73 72/76/72
f 94/112/94 109/128/109 61/61/61
f 49/49/49 89/105/89 69/72/69
f 60/71/60 68/70/68 72/76/72
f 70/92/70 83/91/83 86/99/86
f 69/72/69 84/104/84 70/73/70
f 77/81/77 94/112/94 61/61/61
f 71/74/71 87/100/87 93/111/93
f 109/128/109 58/58/58 52/52/52
f 88/101/88 48/103/48 90/107/90
f 78/82/78 83/91/83 81/87/81
f 83/91/83 78/82/78 86/99/86
f 86/99/86 84/95/84 89/114/89
f 88/101/88 92/109/92 63/102/63
f 93/111/93 102/121/102 44/44/44
f 44/44/44 102/121/102 74/78/74
f 97/116/97 90/107/90 72/76/72
f 91/108/91 106/125/106 87/100/87
f 100/119/100 93/111/93 87/100/87
f 46/46/46 74/78/74 96/115/96
f 95/113/95 94/112/94 82/90/82
f 46/46/46 96/115/96 27/27/27
f 109/128/109 113/132/113 58/58/58
f 68/70/68 101/120/101 72/76/72
f 110/129/110 92/109/92 88/101/88
f 99/118/99 87/100/87 106/125/106
f 104/123/104 90/107/90 97/116/97
f 88/101/88 90/107/90 104/123/104
f 111/130/111 49/110/49 92/109/92
f 91/108/91 105/124/105 106/125/106
f 91/108/91 115/134/115 105/124/105
f 75/79/75 115/134/115 91/108/91
f 113/132/113 75/79/75 58/58/58
f 64/65/64 66/67/66 107/126/107
f 114/133/114 110/129/110 88/101/88
f 116/135/116 68/70/68 76/80/76
f 95/113/95 108/127/108 94/112/94
f 96/115/96 127/146/127 66/67/66
f 93/111/93 99/118/99 117/136/117
f 75/79/75 122/141/122 115/134/115
f 121/140/121 114/133/114 104/123/104
f 121/140/121 104/123/104 101/120/101
f 135/154/135 102/121/102 117/136/117
f 118/137/118 121/140/121 101/120/101
f 113/132/113 123/142/123 75/79/75
f 117/136/117 99/118/99 119/138/119
f 103/122/103 102/121/102 135/154/135
f 113/132/113 112/131/112 123/142/123
f 133/152/133 121/140/121 118/137/118
f 68/70/68 116/135/116 118/137/118
f 120/139/120 121/140/121 144/165/144
f 121/140/121 133/152/133 144/165/144
f 120/139/120 144/165/144 145/166/145
f 145/166/145 141/160/141 120/139/120
f 142/161/142 118/137/118 116/135/116
f 137/156/137 111/130/111 110/129/110
f 130/149/130 128/147/128 124/143/124
f 140/159/140 144/165/144 133/152/133
f 140/159/140 145/166/145 144/165/144
f 103/122/103 136/155/136 96/115/96
f 140/159/140 141/160/141 145/166/145
f 118/137/118 142/161/142 134/153/134
f 125/144/125 142/161/142 116/135/116
f 138/157/138 120/139/120 141/160/141
f 119/138/119 131/150/131 134/153/134
f 112/131/112 139/158/139 123/142/123
f 130/149/130 138/157/138 132/151/132
f 132/151/132 134/153/134 131/150/131
f 132/151/132 140/159/140 134/153/134
f 136/155/136 127/146/127 96/115/96
f 139/158/139 138/157/138 122/141/122
f 95/113/95 129/148/129 139/158/139
