####
#
#	OBJ File Generated by LightWave3D
#	LightWave3D OBJ Export v2.3
#
####
o Branches.obj
mtllib Branches.mtl
g default
v -0.0414582 0.0499713 0.239092
v -0.0275794 0.0834776 0.239092
v 0.00592683 0.0973564 0.239092
v 0.0394331 0.0834776 0.239092
v 0.0533118 0.0499713 0.239092
v 0.0394331 0.0164651 0.239092
v 0.00592683 0.00258635 0.239092
v -0.0275794 0.0164651 0.239092
v 0.0340955 0.0499713 -0.255423
v 0.0478708 0.0834776 -0.253732
v 0.0811273 0.0973564 -0.249648
v 0.114384 0.0834776 -0.245565
v 0.128159 0.0499713 -0.243873
v 0.114384 0.0164651 -0.245565
v 0.0811273 0.00258635 -0.249648
v 0.0478708 0.0164651 -0.253732
v 0.0613622 0.0475231 -0.589515
v 0.0795406 0.00362994 -0.589197
v 0.123427 -0.0145512 -0.588431
v 0.167314 0.00362994 -0.587665
v 0.185492 0.0475231 -0.587348
v 0.167314 0.0914163 -0.587665
v 0.123427 0.109597 -0.588431
v 0.0795406 0.0914163 -0.589197
v -0.0593177 0.0562104 0.549201
v -0.0425884 0.0967529 0.550665
v -0.00220005 0.113546 0.554198
v 0.0381882 0.0967529 0.557732
v 0.0549176 0.0562104 0.559195
v 0.0381882 0.0156678 0.557732
v -0.00220005 -0.00112547 0.554198
v -0.0425884 0.0156678 0.550665
v -0.0275794 0.0834776 0.00780429
v -0.0414582 0.0499713 0.0111543
v 0.00592683 0.0973564 -0.000283445
v 0.0394331 0.0834776 -0.00837117
v 0.0533118 0.0499713 -0.0117212
v 0.0394331 0.0164651 -0.00837117
v 0.00592683 0.00258635 -0.000283445
v -0.0275794 0.0164651 0.00780429
v 0.0533118 0.0499713 0.12063
v 0.0394331 0.0834776 0.12063
v 0.0394331 0.0164651 0.12063
v 0.00592683 0.0973564 0.12063
v -0.0275794 0.0834776 0.12063
v 0.00592683 0.00258635 0.12063
v -0.0275794 0.0164651 0.158538
v -0.0414582 0.0499713 0.158538
v -0.0841047 0.0125372 0.127321
v -0.0841047 0.0125372 0.0850494
v -0.0923389 0.0235014 0.0642611
v -0.0923389 0.0235014 0.150009
v -0.0923389 0.0764413 0.0878769
v -0.0923389 0.0764413 0.127321
v -0.106218 0.0499713 0.150009
v -0.106218 0.0499713 0.0668072
v -0.159921 0.0125372 0.181024
v -0.159921 0.0125372 0.138752
v -0.168155 0.0235014 0.117964
v -0.168155 0.0235014 0.203712
v -0.168155 0.0764413 0.14158
v -0.168155 0.0764413 0.181024
v -0.182034 0.0499713 0.203712
v -0.182034 0.0499713 0.12051
v -0.238896 0.00305546 0.209711
v -0.238896 0.00305546 0.167017
v -0.24713 0.0171993 0.146021
v -0.24713 0.0171993 0.232626
v -0.24713 0.0854917 0.169873
v -0.24713 0.0854917 0.209711
v -0.261009 0.0513455 0.232626
v -0.261009 0.0513455 0.148592
v -0.00197068 0.0578689 0.554992
v 0.125969 0.0483919 -0.589197
vn -0.921914 0.382608 -0.0607121
vn -0.921914 0.382608 -0.0607121
vn -0.921914 0.382608 -0.0607121
vn -0.921914 0.382608 -0.0607121
vn -0.379028 0.923614 -0.05723
vn -0.379028 0.923614 -0.05723
vn -0.379028 0.923614 -0.05723
vn -0.379028 0.923614 -0.05723
vn 0.386419 0.921586 -0.036886
vn 0.386419 0.921586 -0.036886
vn 0.386419 0.921586 -0.036886
vn 0.386419 0.921586 -0.036886
vn 0.92448 0.381039 -0.0120643
vn 0.92448 0.381039 -0.0120643
vn 0.92448 0.381039 -0.0120643
vn 0.92448 0.381039 -0.0120643
vn 0.924355 -0.381524 0.0027992
vn 0.924355 -0.381524 0.0027992
vn 0.924355 -0.381524 0.0027992
vn 0.924355 -0.381524 0.0027992
vn 0.38399 -0.923337 -0.000810183
vn 0.38399 -0.923337 -0.000810183
vn 0.38399 -0.923337 -0.000810183
vn 0.38399 -0.923337 -0.000810183
vn -0.3823 -0.923805 -0.020742
vn -0.3823 -0.923805 -0.020742
vn -0.3823 -0.923805 -0.020742
vn -0.3823 -0.923805 -0.020742
vn -0.92286 -0.382447 -0.0454343
vn -0.92286 -0.382447 -0.0454343
vn -0.92286 -0.382447 -0.0454343
vn -0.92286 -0.382447 -0.0454343
vn 0.883109 0.377156 0.279053
vn 0.883109 0.377156 0.279053
vn 0.883109 0.377156 0.279053
vn 0.883109 0.377156 0.279053
vn 0.883109 -0.377156 0.279053
vn 0.883109 -0.377156 0.279053
vn 0.883109 -0.377156 0.279053
vn 0.883109 -0.377156 0.279053
vn 0.370984 0.921875 0.111877
vn 0.370984 0.921875 0.111877
vn 0.370984 0.921875 0.111877
vn 0.370984 0.921875 0.111877
vn 0.370984 -0.921875 0.111877
vn 0.370984 -0.921875 0.111877
vn 0.370984 -0.921875 0.111877
vn 0.370984 -0.921875 0.111877
vn -0.890404 0.378808 -0.252359
vn -0.890404 0.378808 -0.252359
vn -0.890404 0.378808 -0.252359
vn -0.890404 0.378808 -0.252359
vn -0.890404 -0.378808 -0.252359
vn -0.890404 -0.378808 -0.252359
vn -0.890404 -0.378808 -0.252359
vn -0.890404 -0.378808 -0.252359
vn -0.371671 0.922152 -0.107223
vn -0.371671 0.922152 -0.107223
vn -0.371671 0.922152 -0.107223
vn -0.371671 0.922152 -0.107223
vn -0.371671 -0.922152 -0.107223
vn -0.371671 -0.922152 -0.107223
vn -0.371671 -0.922152 -0.107223
vn -0.371671 -0.922152 -0.107223
vn -0.921293 -0.382077 -0.0723566
vn -0.921293 -0.382077 -0.0723566
vn -0.921293 -0.382077 -0.0723566
vn -0.921293 -0.382077 -0.0723566
vn -0.920893 0.381952 -0.0778987
vn -0.920893 0.381952 -0.0778987
vn -0.920893 0.381952 -0.0778987
vn -0.920893 0.381952 -0.0778987
vn -0.382718 -0.923865 -0.00105105
vn -0.382718 -0.923865 -0.00105105
vn -0.382718 -0.923865 -0.00105105
vn -0.382718 -0.923865 -0.00105105
vn -0.38248 0.923852 -0.0143745
vn -0.38248 0.923852 -0.0143745
vn -0.38248 0.923852 -0.0143745
vn -0.38248 0.923852 -0.0143745
vn 0.379675 -0.920406 0.0932757
vn 0.379675 -0.920406 0.0932757
vn 0.379675 -0.920406 0.0932757
vn 0.379675 -0.920406 0.0932757
vn 0.380304 0.921376 0.080222
vn 0.380304 0.921376 0.080222
vn 0.380304 0.921376 0.080222
vn 0.380304 0.921376 0.080222
vn 0.912339 -0.378967 0.154989
vn 0.912339 -0.378967 0.154989
vn 0.912339 -0.378967 0.154989
vn 0.912339 -0.378967 0.154989
vn 0.913104 0.379245 0.149713
vn 0.913104 0.379245 0.149713
vn 0.913104 0.379245 0.149713
vn 0.913104 0.379245 0.149713
vn 0.92388 0.382683 0
vn 0.92388 0.382683 0
vn 0.92388 0.382683 0
vn 0.92388 0.382683 0
vn 0.92388 -0.382684 -0
vn 0.92388 -0.382684 -0
vn 0.92388 -0.382684 -0
vn 0.92388 -0.382684 -0
vn -0.382683 0.92388 -0
vn -0.382683 0.92388 -0
vn -0.382683 0.92388 -0
vn -0.382683 0.92388 -0
vn 0.382684 0.92388 0
vn 0.382684 0.92388 0
vn 0.382684 0.92388 0
vn 0.382684 0.92388 0
vn 0.382683 -0.92388 -0
vn 0.382683 -0.92388 -0
vn 0.382683 -0.92388 -0
vn 0.382683 -0.92388 -0
vn -0.382683 -0.92388 -0
vn -0.382683 -0.92388 -0
vn -0.382683 -0.92388 -0
vn -0.382683 -0.92388 -0
vn -0.92388 0.382684 -0
vn -0.92388 0.382684 -0
vn -0.92388 0.382684 -0
vn -0.92388 0.382684 -0
vn -0.923879 -0.382684 -0
vn -0.923879 -0.382684 -0
vn -0.923879 -0.382684 -0
vn -0.923879 -0.382684 -0
vn 0.92388 0.382683 -0
vn 0.92388 0.382683 -0
vn 0.92388 0.382683 -0
vn 0.92388 0.382683 -0
vn 0.92388 -0.382684 -0
vn 0.92388 -0.382684 -0
vn 0.92388 -0.382684 -0
vn 0.92388 -0.382684 -0
vn -0.382684 0.92388 -0
vn -0.382684 0.92388 -0
vn -0.382684 0.92388 -0
vn -0.382684 0.92388 -0
vn 0.382684 0.92388 -0
vn 0.382684 0.92388 -0
vn 0.382684 0.92388 -0
vn 0.382684 0.92388 -0
vn 0.382683 -0.92388 -0
vn 0.382683 -0.92388 -0
vn 0.382683 -0.92388 -0
vn 0.382683 -0.92388 -0
vn -0.864213 -0.503127 -0
vn -0.864213 -0.503127 -0
vn -0.864213 -0.503127 -0
vn -0.864213 -0.503127 -0
vn -0.926402 0.376536 -0
vn -0.926402 0.376536 -0
vn -0.926402 0.376536 -0
vn -0.926402 0.376536 -0
vn -0.926402 -0.376536 -0
vn -0.926402 -0.376536 -0
vn -0.926402 -0.376536 -0
vn -0.926402 -0.376536 -0
vn -0.109857 -0.993947 -0
vn -0.109857 -0.993947 -0
vn -0.109857 -0.993947 -0
vn -0.109857 -0.993947 -0
vn -0.386194 -0.870188 -0.305985
vn -0.386194 -0.870188 -0.305985
vn -0.386194 -0.870188 -0.305985
vn -0.386194 -0.870188 -0.305985
vn -0.0696147 -0.907854 0.413466
vn -0.0696147 -0.907854 0.413466
vn -0.0696147 -0.907854 0.413466
vn -0.0696147 -0.907854 0.413466
vn -0.108017 0.994149 -0
vn -0.108017 0.994149 -0
vn -0.108017 0.994149 -0
vn -0.108017 0.994149 -0
vn 0.00822579 0.648269 0.761367
vn 0.00822579 0.648269 0.761367
vn 0.00822579 0.648269 0.761367
vn 0.00822579 0.648269 0.761367
vn -0.608584 0.664403 -0.433814
vn -0.608584 0.664403 -0.433814
vn -0.608584 0.664403 -0.433814
vn -0.608584 0.664403 -0.433814
vn -0.648989 -0.271935 -0.710539
vn -0.648989 -0.271935 -0.710539
vn -0.648989 -0.271935 -0.710539
vn -0.648989 -0.271935 -0.710539
vn -0.137959 -0.072335 0.987793
vn -0.137959 -0.072335 0.987793
vn -0.137959 -0.072335 0.987793
vn -0.137959 -0.072335 0.987793
vn 0 -1 -0
vn 0 -1 -0
vn 0 -1 -0
vn 0 -1 -0
vn -0.260444 -0.892735 -0.367686
vn -0.260444 -0.892735 -0.367686
vn -0.260444 -0.892735 -0.367686
vn -0.260444 -0.892735 -0.367686
vn 0.360297 -0.781956 0.508655
vn 0.360297 -0.781956 0.508655
vn 0.360297 -0.781956 0.508655
vn 0.360297 -0.781956 0.508655
vn 0 1 -0
vn 0 1 -0
vn 0 1 -0
vn 0 1 -0
vn 0.537347 0.368474 0.758607
vn 0.537347 0.368474 0.758607
vn 0.537347 0.368474 0.758607
vn 0.537347 0.368474 0.758607
vn -0.418516 0.689742 -0.590847
vn -0.418516 0.689742 -0.590847
vn -0.418516 0.689742 -0.590847
vn -0.418516 0.689742 -0.590847
vn -0.563971 -0.219119 -0.796194
vn -0.563971 -0.219119 -0.796194
vn -0.563971 -0.219119 -0.796194
vn -0.563971 -0.219119 -0.796194
vn 0.553171 0.290039 0.780947
vn 0.553171 0.290039 0.780947
vn 0.553171 0.290039 0.780947
vn 0.553171 0.290039 0.780947
vn 0.119204 -0.99287 -0
vn 0.119204 -0.99287 -0
vn 0.119204 -0.99287 -0
vn 0.119204 -0.99287 -0
vn -0.0893589 -0.841941 -0.532118
vn -0.0893589 -0.841941 -0.532118
vn -0.0893589 -0.841941 -0.532118
vn -0.0893589 -0.841941 -0.532118
vn 0.30072 -0.759487 0.576842
vn 0.30072 -0.759487 0.576842
vn 0.30072 -0.759487 0.576842
vn 0.30072 -0.759487 0.576842
vn 0.113854 0.993498 0
vn 0.113854 0.993498 0
vn 0.113854 0.993498 0
vn 0.113854 0.993498 0
vn 0.352059 0.418678 0.837116
vn 0.352059 0.418678 0.837116
vn 0.352059 0.418678 0.837116
vn 0.352059 0.418678 0.837116
vn -0.215677 0.578099 -0.786947
vn -0.215677 0.578099 -0.786947
vn -0.215677 0.578099 -0.786947
vn -0.215677 0.578099 -0.786947
vn -0.329628 -0.0630362 -0.942004
vn -0.329628 -0.0630362 -0.942004
vn -0.329628 -0.0630362 -0.942004
vn -0.329628 -0.0630362 -0.942004
vn 0.331184 0.13461 0.933915
vn 0.331184 0.13461 0.933915
vn 0.331184 0.13461 0.933915
vn 0.331184 0.13461 0.933915
vn -0.100639 0.00560968 0.994907
vn -0.100639 0.00560968 0.994907
vn -0.100639 0.00560968 0.994907
vn -0.0928498 0.0138215 0.995584
vn -0.0928498 0.0138215 0.995584
vn -0.0928498 0.0138215 0.995584
vn -0.0814164 0.0138829 0.996583
vn -0.0814164 0.0138829 0.996583
vn -0.0814164 0.0138829 0.996583
vn -0.0735105 0.00566874 0.997278
vn -0.0735105 0.00566874 0.997278
vn -0.0735105 0.00566874 0.997278
vn -0.0738353 -0.00553384 0.997255
vn -0.0738353 -0.00553384 0.997255
vn -0.0738353 -0.00553384 0.997255
vn -0.0817402 -0.0131008 0.996568
vn -0.0817402 -0.0131008 0.996568
vn -0.0817402 -0.0131008 0.996568
vn -0.092531 -0.0130462 0.995624
vn -0.092531 -0.0130462 0.995624
vn -0.092531 -0.0130462 0.995624
vn -0.100322 -0.00547755 0.99494
vn -0.100322 -0.00547755 0.99494
vn -0.100322 -0.00547755 0.99494
vn 0.00498022 -0.00516561 -0.999974
vn 0.00498022 -0.00516561 -0.999974
vn 0.00498022 -0.00516561 -0.999974
vn 0.00484053 0.00522346 -0.999975
vn 0.00484053 0.00522346 -0.999975
vn 0.00484053 0.00522346 -0.999975
vn 0.012207 -0.0126614 -0.999845
vn 0.012207 -0.0126614 -0.999845
vn 0.012207 -0.0126614 -0.999845
vn 0.0120606 0.0130147 -0.999843
vn 0.0120606 0.0130147 -0.999843
vn 0.0120606 0.0130147 -0.999843
vn 0.0228703 -0.0130896 -0.999653
vn 0.0228703 -0.0130896 -0.999653
vn 0.0228703 -0.0130896 -0.999653
vn 0.0230267 0.0134676 -0.999644
vn 0.0230267 0.0134676 -0.999644
vn 0.0230267 0.0134676 -0.999644
vn 0.0309743 -0.00559919 -0.999505
vn 0.0309743 -0.00559919 -0.999505
vn 0.0309743 -0.00559919 -0.999505
vn 0.0311386 0.00566725 -0.999499
vn 0.0311386 0.00566725 -0.999499
vn 0.0311386 0.00566725 -0.999499
g Default
usemtl Default
s off
f 2//1 1//2 25//3 26//4
f 3//5 2//6 26//7 27//8
f 4//9 3//10 27//11 28//12
f 5//13 4//14 28//15 29//16
f 30//17 6//18 5//19 29//20
f 31//21 7//22 6//23 30//24
f 32//25 8//26 7//27 31//28
f 25//29 1//30 8//31 32//32
f 36//33 37//34 13//35 12//36
f 13//37 37//38 38//39 14//40
f 35//41 36//42 12//43 11//44
f 14//45 38//46 39//47 15//48
f 34//49 33//50 10//51 9//52
f 16//53 40//54 34//55 9//56
f 33//57 35//58 11//59 10//60
f 15//61 39//62 40//63 16//64
f 16//65 9//66 17//67 18//68
f 17//69 9//70 10//71 24//72
f 15//73 16//74 18//75 19//76
f 24//77 10//78 11//79 23//80
f 14//81 15//82 19//83 20//84
f 23//85 11//86 12//87 22//88
f 13//89 14//90 20//91 21//92
f 22//93 12//94 13//95 21//96
f 5//97 41//98 42//99 4//100
f 6//101 43//102 41//103 5//104
f 3//105 44//106 45//107 2//108
f 4//109 42//110 44//111 3//112
f 7//113 46//114 43//115 6//116
f 8//117 47//118 46//119 7//120
f 2//121 45//122 48//123 1//124
f 1//125 48//126 47//127 8//128
f 36//129 42//130 41//131 37//132
f 43//133 38//134 37//135 41//136
f 33//137 45//138 44//139 35//140
f 35//141 44//142 42//143 36//144
f 46//145 39//146 38//147 43//148
f 68//149 67//150 66//151 65//152
f 72//153 71//154 70//155 69//156
f 71//157 72//158 67//159 68//160
f 50//161 39//162 46//163 49//164
f 51//165 40//166 39//167 50//168
f 46//169 47//170 52//171 49//172
f 45//173 33//174 53//175 54//176
f 55//177 48//178 45//179 54//180
f 33//181 34//182 56//183 53//184
f 56//185 34//186 40//187 51//188
f 47//189 48//190 55//191 52//192
f 58//193 50//194 49//195 57//196
f 59//197 51//198 50//199 58//200
f 49//201 52//202 60//203 57//204
f 54//205 53//206 61//207 62//208
f 63//209 55//210 54//211 62//212
f 53//213 56//214 64//215 61//216
f 64//217 56//218 51//219 59//220
f 52//221 55//222 63//223 60//224
f 66//225 58//226 57//227 65//228
f 67//229 59//230 58//231 66//232
f 57//233 60//234 68//235 65//236
f 62//237 61//238 69//239 70//240
f 71//241 63//242 62//243 70//244
f 61//245 64//246 72//247 69//248
f 72//249 64//250 59//251 67//252
f 60//253 63//254 71//255 68//256
f 26//257 25//258 73//259
f 27//260 26//261 73//262
f 28//263 27//264 73//265
f 29//266 28//267 73//268
f 73//269 30//270 29//271
f 73//272 31//273 30//274
f 73//275 32//276 31//277
f 73//278 25//279 32//280
f 74//281 18//282 17//283
f 74//284 17//285 24//286
f 74//287 19//288 18//289
f 74//290 24//291 23//292
f 74//293 20//294 19//295
f 74//296 23//297 22//298
f 74//299 21//300 20//301
f 74//302 22//303 21//304
